<svg width="2716" height="1588" viewBox="0 0 2716 1588" fill="none" xmlns="http://www.w3.org/2000/svg">
<rect x="114.551" y="1.41421" width="160" height="160" transform="rotate(45 114.551 1.41421)" stroke="black" stroke-opacity="0.34" stroke-width="2"/>
<rect x="114.551" y="115.414" width="160" height="160" transform="rotate(45 114.551 115.414)" stroke="black" stroke-opacity="0.34" stroke-width="2"/>
<rect x="114.551" y="510.414" width="160" height="160" transform="rotate(45 114.551 510.414)" stroke="black" stroke-opacity="0.34" stroke-width="2"/>
<rect x="114.551" y="227.414" width="160" height="160" transform="rotate(45 114.551 227.414)" stroke="black" stroke-opacity="0.34" stroke-width="2"/>
<rect x="114.551" y="453.414" width="160" height="160" transform="rotate(45 114.551 453.414)" stroke="black" stroke-opacity="0.34" stroke-width="2"/>
<rect x="114.551" y="567.414" width="160" height="160" transform="rotate(45 114.551 567.414)" stroke="black" stroke-opacity="0.34" stroke-width="2"/>
<rect x="566.551" y="679.688" width="160" height="160" transform="rotate(-135 566.551 679.688)" stroke="black" stroke-opacity="0.34" stroke-width="2"/>
<rect x="566.551" y="453.688" width="160" height="160" transform="rotate(-135 566.551 453.688)" stroke="black" stroke-opacity="0.34" stroke-width="2"/>
<rect x="566.551" y="227.688" width="160" height="160" transform="rotate(-135 566.551 227.688)" stroke="black" stroke-opacity="0.34" stroke-width="2"/>
<rect x="566.551" y="567.688" width="160" height="160" transform="rotate(-135 566.551 567.688)" stroke="black" stroke-opacity="0.34" stroke-width="2"/>
<rect x="340.551" y="793.688" width="160" height="160" transform="rotate(-135 340.551 793.688)" stroke="black" stroke-opacity="0.34" stroke-width="2"/>
<rect x="340.551" y="679.688" width="160" height="160" transform="rotate(-135 340.551 679.688)" stroke="black" stroke-opacity="0.34" stroke-width="2"/>
<rect x="340.551" y="284.688" width="160" height="160" transform="rotate(-135 340.551 284.688)" stroke="black" stroke-opacity="0.34" stroke-width="2"/>
<rect x="340.551" y="567.688" width="160" height="160" transform="rotate(-135 340.551 567.688)" stroke="black" stroke-opacity="0.34" stroke-width="2"/>
<rect x="340.551" y="341.688" width="160" height="160" transform="rotate(-135 340.551 341.688)" stroke="black" stroke-opacity="0.34" stroke-width="2"/>
<rect x="340.551" y="227.688" width="160" height="160" transform="rotate(-135 340.551 227.688)" stroke="black" stroke-opacity="0.34" stroke-width="2"/>
<rect x="792.551" y="1.41421" width="160" height="160" transform="rotate(45 792.551 1.41421)" stroke="black" stroke-opacity="0.34" stroke-width="2"/>
<rect x="792.551" y="115.414" width="160" height="160" transform="rotate(45 792.551 115.414)" stroke="black" stroke-opacity="0.34" stroke-width="2"/>
<rect x="792.551" y="510.414" width="160" height="160" transform="rotate(45 792.551 510.414)" stroke="black" stroke-opacity="0.34" stroke-width="2"/>
<rect x="792.551" y="227.414" width="160" height="160" transform="rotate(45 792.551 227.414)" stroke="black" stroke-opacity="0.34" stroke-width="2"/>
<rect x="792.551" y="453.414" width="160" height="160" transform="rotate(45 792.551 453.414)" stroke="black" stroke-opacity="0.34" stroke-width="2"/>
<rect x="792.551" y="567.414" width="160" height="160" transform="rotate(45 792.551 567.414)" stroke="black" stroke-opacity="0.34" stroke-width="2"/>
<rect x="1018.55" y="793.688" width="160" height="160" transform="rotate(-135 1018.55 793.688)" stroke="black" stroke-opacity="0.34" stroke-width="2"/>
<rect x="1018.55" y="679.688" width="160" height="160" transform="rotate(-135 1018.55 679.688)" stroke="black" stroke-opacity="0.34" stroke-width="2"/>
<rect x="1018.55" y="284.688" width="160" height="160" transform="rotate(-135 1018.55 284.688)" stroke="black" stroke-opacity="0.34" stroke-width="2"/>
<rect x="1018.55" y="567.688" width="160" height="160" transform="rotate(-135 1018.55 567.688)" stroke="black" stroke-opacity="0.34" stroke-width="2"/>
<rect x="1018.55" y="341.688" width="160" height="160" transform="rotate(-135 1018.55 341.688)" stroke="black" stroke-opacity="0.34" stroke-width="2"/>
<rect x="1018.55" y="227.688" width="160" height="160" transform="rotate(-135 1018.55 227.688)" stroke="black" stroke-opacity="0.34" stroke-width="2"/>
<rect x="1244.55" y="679.688" width="160" height="160" transform="rotate(-135 1244.55 679.688)" stroke="black" stroke-opacity="0.34" stroke-width="2"/>
<rect x="1244.55" y="453.688" width="160" height="160" transform="rotate(-135 1244.55 453.688)" stroke="black" stroke-opacity="0.34" stroke-width="2"/>
<rect x="1244.55" y="227.688" width="160" height="160" transform="rotate(-135 1244.55 227.688)" stroke="black" stroke-opacity="0.34" stroke-width="2"/>
<rect x="1244.55" y="567.688" width="160" height="160" transform="rotate(-135 1244.55 567.688)" stroke="black" stroke-opacity="0.34" stroke-width="2"/>
<rect x="1470.55" y="1.41421" width="160" height="160" transform="rotate(45 1470.55 1.41421)" stroke="black" stroke-opacity="0.34" stroke-width="2"/>
<rect x="1470.55" y="115.414" width="160" height="160" transform="rotate(45 1470.55 115.414)" stroke="black" stroke-opacity="0.34" stroke-width="2"/>
<rect x="1470.55" y="510.414" width="160" height="160" transform="rotate(45 1470.55 510.414)" stroke="black" stroke-opacity="0.34" stroke-width="2"/>
<rect x="1470.55" y="227.414" width="160" height="160" transform="rotate(45 1470.55 227.414)" stroke="black" stroke-opacity="0.34" stroke-width="2"/>
<rect x="1470.55" y="453.414" width="160" height="160" transform="rotate(45 1470.55 453.414)" stroke="black" stroke-opacity="0.34" stroke-width="2"/>
<rect x="1470.55" y="567.414" width="160" height="160" transform="rotate(45 1470.55 567.414)" stroke="black" stroke-opacity="0.34" stroke-width="2"/>
<rect x="1922.55" y="679.688" width="160" height="160" transform="rotate(-135 1922.55 679.688)" stroke="black" stroke-opacity="0.34" stroke-width="2"/>
<rect x="1922.55" y="453.688" width="160" height="160" transform="rotate(-135 1922.55 453.688)" stroke="black" stroke-opacity="0.34" stroke-width="2"/>
<rect x="1922.55" y="227.688" width="160" height="160" transform="rotate(-135 1922.55 227.688)" stroke="black" stroke-opacity="0.34" stroke-width="2"/>
<rect x="1922.55" y="567.688" width="160" height="160" transform="rotate(-135 1922.55 567.688)" stroke="black" stroke-opacity="0.34" stroke-width="2"/>
<rect x="1696.55" y="793.688" width="160" height="160" transform="rotate(-135 1696.55 793.688)" stroke="black" stroke-opacity="0.34" stroke-width="2"/>
<rect x="1696.55" y="679.688" width="160" height="160" transform="rotate(-135 1696.55 679.688)" stroke="black" stroke-opacity="0.34" stroke-width="2"/>
<rect x="1696.55" y="284.688" width="160" height="160" transform="rotate(-135 1696.55 284.688)" stroke="black" stroke-opacity="0.34" stroke-width="2"/>
<rect x="1696.55" y="567.688" width="160" height="160" transform="rotate(-135 1696.55 567.688)" stroke="black" stroke-opacity="0.34" stroke-width="2"/>
<rect x="1696.55" y="341.688" width="160" height="160" transform="rotate(-135 1696.55 341.688)" stroke="black" stroke-opacity="0.34" stroke-width="2"/>
<rect x="1696.55" y="227.688" width="160" height="160" transform="rotate(-135 1696.55 227.688)" stroke="black" stroke-opacity="0.34" stroke-width="2"/>
<rect x="2148.55" y="1.41421" width="160" height="160" transform="rotate(45 2148.55 1.41421)" stroke="black" stroke-opacity="0.34" stroke-width="2"/>
<rect x="2148.55" y="115.414" width="160" height="160" transform="rotate(45 2148.55 115.414)" stroke="black" stroke-opacity="0.34" stroke-width="2"/>
<rect x="2148.55" y="510.414" width="160" height="160" transform="rotate(45 2148.55 510.414)" stroke="black" stroke-opacity="0.34" stroke-width="2"/>
<rect x="2148.55" y="227.414" width="160" height="160" transform="rotate(45 2148.55 227.414)" stroke="black" stroke-opacity="0.34" stroke-width="2"/>
<rect x="2148.55" y="453.414" width="160" height="160" transform="rotate(45 2148.55 453.414)" stroke="black" stroke-opacity="0.34" stroke-width="2"/>
<rect x="2148.55" y="567.414" width="160" height="160" transform="rotate(45 2148.55 567.414)" stroke="black" stroke-opacity="0.34" stroke-width="2"/>
<rect x="2374.55" y="793.688" width="160" height="160" transform="rotate(-135 2374.55 793.688)" stroke="black" stroke-opacity="0.34" stroke-width="2"/>
<rect x="2374.55" y="679.688" width="160" height="160" transform="rotate(-135 2374.55 679.688)" stroke="black" stroke-opacity="0.34" stroke-width="2"/>
<rect x="2374.55" y="284.688" width="160" height="160" transform="rotate(-135 2374.55 284.688)" stroke="black" stroke-opacity="0.34" stroke-width="2"/>
<rect x="2374.55" y="567.688" width="160" height="160" transform="rotate(-135 2374.55 567.688)" stroke="black" stroke-opacity="0.34" stroke-width="2"/>
<rect x="2374.55" y="341.688" width="160" height="160" transform="rotate(-135 2374.55 341.688)" stroke="black" stroke-opacity="0.34" stroke-width="2"/>
<rect x="2374.55" y="227.688" width="160" height="160" transform="rotate(-135 2374.55 227.688)" stroke="black" stroke-opacity="0.34" stroke-width="2"/>
<rect x="2600.55" y="679.688" width="160" height="160" transform="rotate(-135 2600.55 679.688)" stroke="black" stroke-opacity="0.34" stroke-width="2"/>
<rect x="2600.55" y="453.688" width="160" height="160" transform="rotate(-135 2600.55 453.688)" stroke="black" stroke-opacity="0.34" stroke-width="2"/>
<rect x="2600.55" y="227.688" width="160" height="160" transform="rotate(-135 2600.55 227.688)" stroke="black" stroke-opacity="0.34" stroke-width="2"/>
<rect x="2600.55" y="567.688" width="160" height="160" transform="rotate(-135 2600.55 567.688)" stroke="black" stroke-opacity="0.34" stroke-width="2"/>
<rect x="114.551" y="793.414" width="160" height="160" transform="rotate(45 114.551 793.414)" stroke="black" stroke-opacity="0.34" stroke-width="2"/>
<rect x="114.551" y="907.414" width="160" height="160" transform="rotate(45 114.551 907.414)" stroke="black" stroke-opacity="0.34" stroke-width="2"/>
<rect x="114.551" y="1302.41" width="160" height="160" transform="rotate(45 114.551 1302.41)" stroke="black" stroke-opacity="0.34" stroke-width="2"/>
<rect x="114.551" y="1019.41" width="160" height="160" transform="rotate(45 114.551 1019.41)" stroke="black" stroke-opacity="0.34" stroke-width="2"/>
<rect x="114.551" y="1245.41" width="160" height="160" transform="rotate(45 114.551 1245.41)" stroke="black" stroke-opacity="0.34" stroke-width="2"/>
<rect x="114.551" y="1359.41" width="160" height="160" transform="rotate(45 114.551 1359.41)" stroke="black" stroke-opacity="0.34" stroke-width="2"/>
<rect x="566.551" y="1471.69" width="160" height="160" transform="rotate(-135 566.551 1471.69)" stroke="black" stroke-opacity="0.34" stroke-width="2"/>
<rect x="566.551" y="1245.69" width="160" height="160" transform="rotate(-135 566.551 1245.69)" stroke="black" stroke-opacity="0.34" stroke-width="2"/>
<rect x="566.551" y="1019.69" width="160" height="160" transform="rotate(-135 566.551 1019.69)" stroke="black" stroke-opacity="0.34" stroke-width="2"/>
<rect x="566.551" y="1359.69" width="160" height="160" transform="rotate(-135 566.551 1359.69)" stroke="black" stroke-opacity="0.34" stroke-width="2"/>
<rect x="340.551" y="1585.69" width="160" height="160" transform="rotate(-135 340.551 1585.69)" stroke="black" stroke-opacity="0.34" stroke-width="2"/>
<rect x="340.551" y="1471.69" width="160" height="160" transform="rotate(-135 340.551 1471.69)" stroke="black" stroke-opacity="0.34" stroke-width="2"/>
<rect x="340.551" y="1076.69" width="160" height="160" transform="rotate(-135 340.551 1076.69)" stroke="black" stroke-opacity="0.34" stroke-width="2"/>
<rect x="340.551" y="1359.69" width="160" height="160" transform="rotate(-135 340.551 1359.69)" stroke="black" stroke-opacity="0.34" stroke-width="2"/>
<rect x="340.551" y="1133.69" width="160" height="160" transform="rotate(-135 340.551 1133.69)" stroke="black" stroke-opacity="0.34" stroke-width="2"/>
<rect x="340.551" y="1019.69" width="160" height="160" transform="rotate(-135 340.551 1019.69)" stroke="black" stroke-opacity="0.34" stroke-width="2"/>
<rect x="792.551" y="793.414" width="160" height="160" transform="rotate(45 792.551 793.414)" stroke="black" stroke-opacity="0.34" stroke-width="2"/>
<rect x="792.551" y="907.414" width="160" height="160" transform="rotate(45 792.551 907.414)" stroke="black" stroke-opacity="0.34" stroke-width="2"/>
<rect x="792.551" y="1302.41" width="160" height="160" transform="rotate(45 792.551 1302.41)" stroke="black" stroke-opacity="0.34" stroke-width="2"/>
<rect x="792.551" y="1019.41" width="160" height="160" transform="rotate(45 792.551 1019.41)" stroke="black" stroke-opacity="0.34" stroke-width="2"/>
<rect x="792.551" y="1245.41" width="160" height="160" transform="rotate(45 792.551 1245.41)" stroke="black" stroke-opacity="0.34" stroke-width="2"/>
<rect x="792.551" y="1359.41" width="160" height="160" transform="rotate(45 792.551 1359.41)" stroke="black" stroke-opacity="0.34" stroke-width="2"/>
<rect x="1018.55" y="1585.69" width="160" height="160" transform="rotate(-135 1018.55 1585.69)" stroke="black" stroke-opacity="0.34" stroke-width="2"/>
<rect x="1018.55" y="1471.69" width="160" height="160" transform="rotate(-135 1018.55 1471.69)" stroke="black" stroke-opacity="0.34" stroke-width="2"/>
<rect x="1018.55" y="1076.69" width="160" height="160" transform="rotate(-135 1018.55 1076.69)" stroke="black" stroke-opacity="0.34" stroke-width="2"/>
<rect x="1018.55" y="1359.69" width="160" height="160" transform="rotate(-135 1018.55 1359.69)" stroke="black" stroke-opacity="0.34" stroke-width="2"/>
<rect x="1018.55" y="1133.69" width="160" height="160" transform="rotate(-135 1018.55 1133.69)" stroke="black" stroke-opacity="0.34" stroke-width="2"/>
<rect x="1018.55" y="1019.69" width="160" height="160" transform="rotate(-135 1018.55 1019.69)" stroke="black" stroke-opacity="0.34" stroke-width="2"/>
<rect x="1244.55" y="1471.69" width="160" height="160" transform="rotate(-135 1244.55 1471.69)" stroke="black" stroke-opacity="0.34" stroke-width="2"/>
<rect x="1244.55" y="1245.69" width="160" height="160" transform="rotate(-135 1244.55 1245.69)" stroke="black" stroke-opacity="0.34" stroke-width="2"/>
<rect x="1244.55" y="1019.69" width="160" height="160" transform="rotate(-135 1244.55 1019.69)" stroke="black" stroke-opacity="0.34" stroke-width="2"/>
<rect x="1244.55" y="1359.69" width="160" height="160" transform="rotate(-135 1244.55 1359.69)" stroke="black" stroke-opacity="0.34" stroke-width="2"/>
<rect x="1470.55" y="793.414" width="160" height="160" transform="rotate(45 1470.55 793.414)" stroke="black" stroke-opacity="0.34" stroke-width="2"/>
<rect x="1470.55" y="907.414" width="160" height="160" transform="rotate(45 1470.55 907.414)" stroke="black" stroke-opacity="0.34" stroke-width="2"/>
<rect x="1470.55" y="1302.41" width="160" height="160" transform="rotate(45 1470.55 1302.41)" stroke="black" stroke-opacity="0.34" stroke-width="2"/>
<rect x="1470.55" y="1019.41" width="160" height="160" transform="rotate(45 1470.55 1019.41)" stroke="black" stroke-opacity="0.34" stroke-width="2"/>
<rect x="1470.55" y="1245.41" width="160" height="160" transform="rotate(45 1470.55 1245.41)" stroke="black" stroke-opacity="0.34" stroke-width="2"/>
<rect x="1470.55" y="1359.41" width="160" height="160" transform="rotate(45 1470.55 1359.41)" stroke="black" stroke-opacity="0.34" stroke-width="2"/>
<rect x="1922.55" y="1471.69" width="160" height="160" transform="rotate(-135 1922.55 1471.69)" stroke="black" stroke-opacity="0.34" stroke-width="2"/>
<rect x="1922.55" y="1245.69" width="160" height="160" transform="rotate(-135 1922.55 1245.69)" stroke="black" stroke-opacity="0.34" stroke-width="2"/>
<rect x="1922.55" y="1019.69" width="160" height="160" transform="rotate(-135 1922.55 1019.69)" stroke="black" stroke-opacity="0.34" stroke-width="2"/>
<rect x="1922.55" y="1359.69" width="160" height="160" transform="rotate(-135 1922.55 1359.69)" stroke="black" stroke-opacity="0.34" stroke-width="2"/>
<rect x="1696.55" y="1585.69" width="160" height="160" transform="rotate(-135 1696.55 1585.69)" stroke="black" stroke-opacity="0.34" stroke-width="2"/>
<rect x="1696.55" y="1471.69" width="160" height="160" transform="rotate(-135 1696.55 1471.69)" stroke="black" stroke-opacity="0.34" stroke-width="2"/>
<rect x="1696.55" y="1076.69" width="160" height="160" transform="rotate(-135 1696.55 1076.69)" stroke="black" stroke-opacity="0.34" stroke-width="2"/>
<rect x="1696.55" y="1359.69" width="160" height="160" transform="rotate(-135 1696.55 1359.69)" stroke="black" stroke-opacity="0.34" stroke-width="2"/>
<rect x="1696.55" y="1133.69" width="160" height="160" transform="rotate(-135 1696.55 1133.69)" stroke="black" stroke-opacity="0.34" stroke-width="2"/>
<rect x="1696.55" y="1019.69" width="160" height="160" transform="rotate(-135 1696.55 1019.69)" stroke="black" stroke-opacity="0.34" stroke-width="2"/>
<rect x="2148.55" y="793.414" width="160" height="160" transform="rotate(45 2148.55 793.414)" stroke="black" stroke-opacity="0.34" stroke-width="2"/>
<rect x="2148.55" y="907.414" width="160" height="160" transform="rotate(45 2148.55 907.414)" stroke="black" stroke-opacity="0.34" stroke-width="2"/>
<rect x="2148.55" y="1302.41" width="160" height="160" transform="rotate(45 2148.55 1302.41)" stroke="black" stroke-opacity="0.34" stroke-width="2"/>
<rect x="2148.55" y="1019.41" width="160" height="160" transform="rotate(45 2148.55 1019.41)" stroke="black" stroke-opacity="0.34" stroke-width="2"/>
<rect x="2148.55" y="1245.41" width="160" height="160" transform="rotate(45 2148.55 1245.41)" stroke="black" stroke-opacity="0.34" stroke-width="2"/>
<rect x="2148.55" y="1359.41" width="160" height="160" transform="rotate(45 2148.55 1359.41)" stroke="black" stroke-opacity="0.34" stroke-width="2"/>
<rect x="2374.55" y="1585.69" width="160" height="160" transform="rotate(-135 2374.55 1585.69)" stroke="black" stroke-opacity="0.34" stroke-width="2"/>
<rect x="2374.55" y="1471.69" width="160" height="160" transform="rotate(-135 2374.55 1471.69)" stroke="black" stroke-opacity="0.34" stroke-width="2"/>
<rect x="2374.55" y="1076.69" width="160" height="160" transform="rotate(-135 2374.55 1076.69)" stroke="black" stroke-opacity="0.34" stroke-width="2"/>
<rect x="2374.55" y="1359.69" width="160" height="160" transform="rotate(-135 2374.55 1359.69)" stroke="black" stroke-opacity="0.34" stroke-width="2"/>
<rect x="2374.55" y="1133.69" width="160" height="160" transform="rotate(-135 2374.55 1133.69)" stroke="black" stroke-opacity="0.34" stroke-width="2"/>
<rect x="2374.55" y="1019.69" width="160" height="160" transform="rotate(-135 2374.55 1019.69)" stroke="black" stroke-opacity="0.34" stroke-width="2"/>
<rect x="2600.55" y="1471.69" width="160" height="160" transform="rotate(-135 2600.55 1471.69)" stroke="black" stroke-opacity="0.34" stroke-width="2"/>
<rect x="2600.55" y="1245.69" width="160" height="160" transform="rotate(-135 2600.55 1245.69)" stroke="black" stroke-opacity="0.34" stroke-width="2"/>
<rect x="2600.55" y="1019.69" width="160" height="160" transform="rotate(-135 2600.55 1019.69)" stroke="black" stroke-opacity="0.34" stroke-width="2"/>
<rect x="2600.55" y="1359.69" width="160" height="160" transform="rotate(-135 2600.55 1359.69)" stroke="black" stroke-opacity="0.34" stroke-width="2"/>
</svg>
