<svg width="938" height="549" viewBox="0 0 938 549" fill="none" xmlns="http://www.w3.org/2000/svg">
<rect x="39.5566" y="2.3566" width="53.9418" height="53.9418" transform="rotate(45 39.5566 2.3566)" stroke="#F56E0F" stroke-opacity="0.16" stroke-width="2"/>
<rect x="39.5566" y="41.7231" width="53.9418" height="53.9418" transform="rotate(45 39.5566 41.7231)" stroke="#F56E0F" stroke-opacity="0.16" stroke-width="2"/>
<rect x="39.5566" y="178.124" width="53.9418" height="53.9418" transform="rotate(45 39.5566 178.124)" stroke="#F56E0F" stroke-opacity="0.16" stroke-width="2"/>
<rect x="39.5566" y="80.3988" width="53.9418" height="53.9418" transform="rotate(45 39.5566 80.3988)" stroke="#F56E0F" stroke-opacity="0.16" stroke-width="2"/>
<rect x="39.5566" y="158.441" width="53.9418" height="53.9418" transform="rotate(45 39.5566 158.441)" stroke="#F56E0F" stroke-opacity="0.16" stroke-width="2"/>
<rect x="39.5566" y="197.808" width="53.9418" height="53.9418" transform="rotate(45 39.5566 197.808)" stroke="#F56E0F" stroke-opacity="0.16" stroke-width="2"/>
<rect x="195.642" y="234.726" width="53.9418" height="53.9418" transform="rotate(-135 195.642 234.726)" stroke="#F56E0F" stroke-opacity="0.16" stroke-width="2"/>
<rect x="195.642" y="156.684" width="53.9418" height="53.9418" transform="rotate(-135 195.642 156.684)" stroke="#F56E0F" stroke-opacity="0.16" stroke-width="2"/>
<rect x="195.642" y="78.6417" width="53.9418" height="53.9418" transform="rotate(-135 195.642 78.6417)" stroke="#F56E0F" stroke-opacity="0.16" stroke-width="2"/>
<rect x="195.642" y="196.05" width="53.9418" height="53.9418" transform="rotate(-135 195.642 196.05)" stroke="#F56E0F" stroke-opacity="0.16" stroke-width="2"/>
<rect x="117.6" y="274.093" width="53.9418" height="53.9418" transform="rotate(-135 117.6 274.093)" stroke="#F56E0F" stroke-opacity="0.16" stroke-width="2"/>
<rect x="117.6" y="234.726" width="53.9418" height="53.9418" transform="rotate(-135 117.6 234.726)" stroke="#F56E0F" stroke-opacity="0.16" stroke-width="2"/>
<rect x="117.6" y="98.325" width="53.9418" height="53.9418" transform="rotate(-135 117.6 98.325)" stroke="#F56E0F" stroke-opacity="0.16" stroke-width="2"/>
<rect x="117.6" y="196.05" width="53.9418" height="53.9418" transform="rotate(-135 117.6 196.05)" stroke="#F56E0F" stroke-opacity="0.16" stroke-width="2"/>
<rect x="117.6" y="118.008" width="53.9418" height="53.9418" transform="rotate(-135 117.6 118.008)" stroke="#F56E0F" stroke-opacity="0.16" stroke-width="2"/>
<rect x="117.6" y="78.6417" width="53.9418" height="53.9418" transform="rotate(-135 117.6 78.6417)" stroke="#F56E0F" stroke-opacity="0.16" stroke-width="2"/>
<rect x="273.684" y="2.3566" width="53.9418" height="53.9418" transform="rotate(45 273.684 2.3566)" stroke="#F56E0F" stroke-opacity="0.16" stroke-width="2"/>
<rect x="273.684" y="41.7231" width="53.9418" height="53.9418" transform="rotate(45 273.684 41.7231)" stroke="#F56E0F" stroke-opacity="0.16" stroke-width="2"/>
<rect x="273.684" y="178.124" width="53.9418" height="53.9418" transform="rotate(45 273.684 178.124)" stroke="#F56E0F" stroke-opacity="0.16" stroke-width="2"/>
<rect x="273.684" y="80.3988" width="53.9418" height="53.9418" transform="rotate(45 273.684 80.3988)" stroke="#F56E0F" stroke-opacity="0.16" stroke-width="2"/>
<rect x="273.684" y="158.441" width="53.9418" height="53.9418" transform="rotate(45 273.684 158.441)" stroke="#F56E0F" stroke-opacity="0.16" stroke-width="2"/>
<rect x="273.684" y="197.808" width="53.9418" height="53.9418" transform="rotate(45 273.684 197.808)" stroke="#F56E0F" stroke-opacity="0.16" stroke-width="2"/>
<rect x="351.726" y="274.093" width="53.9418" height="53.9418" transform="rotate(-135 351.726 274.093)" stroke="#F56E0F" stroke-opacity="0.16" stroke-width="2"/>
<rect x="351.726" y="234.726" width="53.9418" height="53.9418" transform="rotate(-135 351.726 234.726)" stroke="#F56E0F" stroke-opacity="0.16" stroke-width="2"/>
<rect x="351.726" y="98.325" width="53.9418" height="53.9418" transform="rotate(-135 351.726 98.325)" stroke="#F56E0F" stroke-opacity="0.16" stroke-width="2"/>
<rect x="351.726" y="196.05" width="53.9418" height="53.9418" transform="rotate(-135 351.726 196.05)" stroke="#F56E0F" stroke-opacity="0.16" stroke-width="2"/>
<rect x="351.726" y="118.008" width="53.9418" height="53.9418" transform="rotate(-135 351.726 118.008)" stroke="#F56E0F" stroke-opacity="0.16" stroke-width="2"/>
<rect x="351.726" y="78.6417" width="53.9418" height="53.9418" transform="rotate(-135 351.726 78.6417)" stroke="#F56E0F" stroke-opacity="0.16" stroke-width="2"/>
<rect x="429.768" y="234.726" width="53.9418" height="53.9418" transform="rotate(-135 429.768 234.726)" stroke="#F56E0F" stroke-opacity="0.16" stroke-width="2"/>
<rect x="429.768" y="156.684" width="53.9418" height="53.9418" transform="rotate(-135 429.768 156.684)" stroke="#F56E0F" stroke-opacity="0.16" stroke-width="2"/>
<rect x="429.768" y="78.6417" width="53.9418" height="53.9418" transform="rotate(-135 429.768 78.6417)" stroke="#F56E0F" stroke-opacity="0.16" stroke-width="2"/>
<rect x="429.768" y="196.05" width="53.9418" height="53.9418" transform="rotate(-135 429.768 196.05)" stroke="#F56E0F" stroke-opacity="0.16" stroke-width="2"/>
<rect x="507.81" y="2.3566" width="53.9418" height="53.9418" transform="rotate(45 507.81 2.3566)" stroke="#F56E0F" stroke-opacity="0.16" stroke-width="2"/>
<rect x="507.81" y="41.7231" width="53.9418" height="53.9418" transform="rotate(45 507.81 41.7231)" stroke="#F56E0F" stroke-opacity="0.16" stroke-width="2"/>
<rect x="507.81" y="178.124" width="53.9418" height="53.9418" transform="rotate(45 507.81 178.124)" stroke="#F56E0F" stroke-opacity="0.16" stroke-width="2"/>
<rect x="507.81" y="80.3988" width="53.9418" height="53.9418" transform="rotate(45 507.81 80.3988)" stroke="#F56E0F" stroke-opacity="0.16" stroke-width="2"/>
<rect x="507.81" y="158.441" width="53.9418" height="53.9418" transform="rotate(45 507.81 158.441)" stroke="#F56E0F" stroke-opacity="0.16" stroke-width="2"/>
<rect x="507.81" y="197.808" width="53.9418" height="53.9418" transform="rotate(45 507.81 197.808)" stroke="#F56E0F" stroke-opacity="0.16" stroke-width="2"/>
<rect x="663.895" y="234.726" width="53.9418" height="53.9418" transform="rotate(-135 663.895 234.726)" stroke="#F56E0F" stroke-opacity="0.16" stroke-width="2"/>
<rect x="663.895" y="156.684" width="53.9418" height="53.9418" transform="rotate(-135 663.895 156.684)" stroke="#F56E0F" stroke-opacity="0.16" stroke-width="2"/>
<rect x="663.895" y="78.6417" width="53.9418" height="53.9418" transform="rotate(-135 663.895 78.6417)" stroke="#F56E0F" stroke-opacity="0.16" stroke-width="2"/>
<rect x="663.895" y="196.05" width="53.9418" height="53.9418" transform="rotate(-135 663.895 196.05)" stroke="#F56E0F" stroke-opacity="0.16" stroke-width="2"/>
<rect x="585.853" y="274.093" width="53.9418" height="53.9418" transform="rotate(-135 585.853 274.093)" stroke="#F56E0F" stroke-opacity="0.16" stroke-width="2"/>
<rect x="585.853" y="234.726" width="53.9418" height="53.9418" transform="rotate(-135 585.853 234.726)" stroke="#F56E0F" stroke-opacity="0.16" stroke-width="2"/>
<rect x="585.853" y="98.325" width="53.9418" height="53.9418" transform="rotate(-135 585.853 98.325)" stroke="#F56E0F" stroke-opacity="0.16" stroke-width="2"/>
<rect x="585.853" y="196.05" width="53.9418" height="53.9418" transform="rotate(-135 585.853 196.05)" stroke="#F56E0F" stroke-opacity="0.16" stroke-width="2"/>
<rect x="585.853" y="118.008" width="53.9418" height="53.9418" transform="rotate(-135 585.853 118.008)" stroke="#F56E0F" stroke-opacity="0.16" stroke-width="2"/>
<rect x="585.853" y="78.6417" width="53.9418" height="53.9418" transform="rotate(-135 585.853 78.6417)" stroke="#F56E0F" stroke-opacity="0.16" stroke-width="2"/>
<rect x="741.937" y="2.3566" width="53.9418" height="53.9418" transform="rotate(45 741.937 2.3566)" stroke="#F56E0F" stroke-opacity="0.16" stroke-width="2"/>
<rect x="741.937" y="41.7231" width="53.9418" height="53.9418" transform="rotate(45 741.937 41.7231)" stroke="#F56E0F" stroke-opacity="0.16" stroke-width="2"/>
<rect x="741.937" y="178.124" width="53.9418" height="53.9418" transform="rotate(45 741.937 178.124)" stroke="#F56E0F" stroke-opacity="0.16" stroke-width="2"/>
<rect x="741.937" y="80.3988" width="53.9418" height="53.9418" transform="rotate(45 741.937 80.3988)" stroke="#F56E0F" stroke-opacity="0.16" stroke-width="2"/>
<rect x="741.937" y="158.441" width="53.9418" height="53.9418" transform="rotate(45 741.937 158.441)" stroke="#F56E0F" stroke-opacity="0.16" stroke-width="2"/>
<rect x="741.937" y="197.808" width="53.9418" height="53.9418" transform="rotate(45 741.937 197.808)" stroke="#F56E0F" stroke-opacity="0.16" stroke-width="2"/>
<rect x="819.979" y="274.093" width="53.9418" height="53.9418" transform="rotate(-135 819.979 274.093)" stroke="#F56E0F" stroke-opacity="0.16" stroke-width="2"/>
<rect x="819.979" y="234.726" width="53.9418" height="53.9418" transform="rotate(-135 819.979 234.726)" stroke="#F56E0F" stroke-opacity="0.16" stroke-width="2"/>
<rect x="819.979" y="98.325" width="53.9418" height="53.9418" transform="rotate(-135 819.979 98.325)" stroke="#F56E0F" stroke-opacity="0.16" stroke-width="2"/>
<rect x="819.979" y="196.05" width="53.9418" height="53.9418" transform="rotate(-135 819.979 196.05)" stroke="#F56E0F" stroke-opacity="0.16" stroke-width="2"/>
<rect x="819.979" y="118.008" width="53.9418" height="53.9418" transform="rotate(-135 819.979 118.008)" stroke="#F56E0F" stroke-opacity="0.16" stroke-width="2"/>
<rect x="819.979" y="78.6417" width="53.9418" height="53.9418" transform="rotate(-135 819.979 78.6417)" stroke="#F56E0F" stroke-opacity="0.16" stroke-width="2"/>
<rect x="898.021" y="234.726" width="53.9418" height="53.9418" transform="rotate(-135 898.021 234.726)" stroke="#F56E0F" stroke-opacity="0.16" stroke-width="2"/>
<rect x="898.021" y="156.684" width="53.9418" height="53.9418" transform="rotate(-135 898.021 156.684)" stroke="#F56E0F" stroke-opacity="0.16" stroke-width="2"/>
<rect x="898.021" y="78.6417" width="53.9418" height="53.9418" transform="rotate(-135 898.021 78.6417)" stroke="#F56E0F" stroke-opacity="0.16" stroke-width="2"/>
<rect x="898.021" y="196.05" width="53.9418" height="53.9418" transform="rotate(-135 898.021 196.05)" stroke="#F56E0F" stroke-opacity="0.16" stroke-width="2"/>
<rect x="39.5566" y="275.85" width="53.9418" height="53.9418" transform="rotate(45 39.5566 275.85)" stroke="#F56E0F" stroke-opacity="0.16" stroke-width="2"/>
<rect x="39.5566" y="315.216" width="53.9418" height="53.9418" transform="rotate(45 39.5566 315.216)" stroke="#F56E0F" stroke-opacity="0.16" stroke-width="2"/>
<rect x="39.5566" y="451.617" width="53.9418" height="53.9418" transform="rotate(45 39.5566 451.617)" stroke="#F56E0F" stroke-opacity="0.16" stroke-width="2"/>
<rect x="39.5566" y="353.892" width="53.9418" height="53.9418" transform="rotate(45 39.5566 353.892)" stroke="#F56E0F" stroke-opacity="0.16" stroke-width="2"/>
<rect x="39.5566" y="431.934" width="53.9418" height="53.9418" transform="rotate(45 39.5566 431.934)" stroke="#F56E0F" stroke-opacity="0.16" stroke-width="2"/>
<rect x="39.5566" y="471.3" width="53.9418" height="53.9418" transform="rotate(45 39.5566 471.3)" stroke="#F56E0F" stroke-opacity="0.16" stroke-width="2"/>
<rect x="195.642" y="508.219" width="53.9418" height="53.9418" transform="rotate(-135 195.642 508.219)" stroke="#F56E0F" stroke-opacity="0.16" stroke-width="2"/>
<rect x="195.642" y="430.177" width="53.9418" height="53.9418" transform="rotate(-135 195.642 430.177)" stroke="#F56E0F" stroke-opacity="0.16" stroke-width="2"/>
<rect x="195.642" y="352.135" width="53.9418" height="53.9418" transform="rotate(-135 195.642 352.135)" stroke="#F56E0F" stroke-opacity="0.16" stroke-width="2"/>
<rect x="195.642" y="469.544" width="53.9418" height="53.9418" transform="rotate(-135 195.642 469.544)" stroke="#F56E0F" stroke-opacity="0.16" stroke-width="2"/>
<rect x="117.6" y="547.586" width="53.9418" height="53.9418" transform="rotate(-135 117.6 547.586)" stroke="#F56E0F" stroke-opacity="0.16" stroke-width="2"/>
<rect x="117.6" y="508.219" width="53.9418" height="53.9418" transform="rotate(-135 117.6 508.219)" stroke="#F56E0F" stroke-opacity="0.16" stroke-width="2"/>
<rect x="117.6" y="371.818" width="53.9418" height="53.9418" transform="rotate(-135 117.6 371.818)" stroke="#F56E0F" stroke-opacity="0.16" stroke-width="2"/>
<rect x="117.6" y="469.544" width="53.9418" height="53.9418" transform="rotate(-135 117.6 469.544)" stroke="#F56E0F" stroke-opacity="0.16" stroke-width="2"/>
<rect x="117.6" y="391.501" width="53.9418" height="53.9418" transform="rotate(-135 117.6 391.501)" stroke="#F56E0F" stroke-opacity="0.16" stroke-width="2"/>
<rect x="117.6" y="352.135" width="53.9418" height="53.9418" transform="rotate(-135 117.6 352.135)" stroke="#F56E0F" stroke-opacity="0.16" stroke-width="2"/>
<rect x="273.684" y="275.85" width="53.9418" height="53.9418" transform="rotate(45 273.684 275.85)" stroke="#F56E0F" stroke-opacity="0.16" stroke-width="2"/>
<rect x="273.684" y="315.216" width="53.9418" height="53.9418" transform="rotate(45 273.684 315.216)" stroke="#F56E0F" stroke-opacity="0.16" stroke-width="2"/>
<rect x="273.684" y="451.617" width="53.9418" height="53.9418" transform="rotate(45 273.684 451.617)" stroke="#F56E0F" stroke-opacity="0.16" stroke-width="2"/>
<rect x="273.684" y="353.892" width="53.9418" height="53.9418" transform="rotate(45 273.684 353.892)" stroke="#F56E0F" stroke-opacity="0.16" stroke-width="2"/>
<rect x="273.684" y="431.934" width="53.9418" height="53.9418" transform="rotate(45 273.684 431.934)" stroke="#F56E0F" stroke-opacity="0.16" stroke-width="2"/>
<rect x="273.684" y="471.3" width="53.9418" height="53.9418" transform="rotate(45 273.684 471.3)" stroke="#F56E0F" stroke-opacity="0.16" stroke-width="2"/>
<rect x="351.726" y="547.586" width="53.9418" height="53.9418" transform="rotate(-135 351.726 547.586)" stroke="#F56E0F" stroke-opacity="0.16" stroke-width="2"/>
<rect x="351.726" y="508.219" width="53.9418" height="53.9418" transform="rotate(-135 351.726 508.219)" stroke="#F56E0F" stroke-opacity="0.16" stroke-width="2"/>
<rect x="351.726" y="371.818" width="53.9418" height="53.9418" transform="rotate(-135 351.726 371.818)" stroke="#F56E0F" stroke-opacity="0.16" stroke-width="2"/>
<rect x="351.726" y="469.544" width="53.9418" height="53.9418" transform="rotate(-135 351.726 469.544)" stroke="#F56E0F" stroke-opacity="0.16" stroke-width="2"/>
<rect x="351.726" y="391.501" width="53.9418" height="53.9418" transform="rotate(-135 351.726 391.501)" stroke="#F56E0F" stroke-opacity="0.16" stroke-width="2"/>
<rect x="351.726" y="352.135" width="53.9418" height="53.9418" transform="rotate(-135 351.726 352.135)" stroke="#F56E0F" stroke-opacity="0.16" stroke-width="2"/>
<rect x="429.768" y="508.219" width="53.9418" height="53.9418" transform="rotate(-135 429.768 508.219)" stroke="#F56E0F" stroke-opacity="0.16" stroke-width="2"/>
<rect x="429.768" y="430.177" width="53.9418" height="53.9418" transform="rotate(-135 429.768 430.177)" stroke="#F56E0F" stroke-opacity="0.16" stroke-width="2"/>
<rect x="429.768" y="352.135" width="53.9418" height="53.9418" transform="rotate(-135 429.768 352.135)" stroke="#F56E0F" stroke-opacity="0.16" stroke-width="2"/>
<rect x="429.768" y="469.544" width="53.9418" height="53.9418" transform="rotate(-135 429.768 469.544)" stroke="#F56E0F" stroke-opacity="0.16" stroke-width="2"/>
<rect x="507.81" y="275.85" width="53.9418" height="53.9418" transform="rotate(45 507.81 275.85)" stroke="#F56E0F" stroke-opacity="0.16" stroke-width="2"/>
<rect x="507.81" y="315.216" width="53.9418" height="53.9418" transform="rotate(45 507.81 315.216)" stroke="#F56E0F" stroke-opacity="0.16" stroke-width="2"/>
<rect x="507.81" y="451.617" width="53.9418" height="53.9418" transform="rotate(45 507.81 451.617)" stroke="#F56E0F" stroke-opacity="0.16" stroke-width="2"/>
<rect x="507.81" y="353.892" width="53.9418" height="53.9418" transform="rotate(45 507.81 353.892)" stroke="#F56E0F" stroke-opacity="0.16" stroke-width="2"/>
<rect x="507.81" y="431.934" width="53.9418" height="53.9418" transform="rotate(45 507.81 431.934)" stroke="#F56E0F" stroke-opacity="0.16" stroke-width="2"/>
<rect x="507.81" y="471.3" width="53.9418" height="53.9418" transform="rotate(45 507.81 471.3)" stroke="#F56E0F" stroke-opacity="0.16" stroke-width="2"/>
<rect x="663.895" y="508.219" width="53.9418" height="53.9418" transform="rotate(-135 663.895 508.219)" stroke="#F56E0F" stroke-opacity="0.16" stroke-width="2"/>
<rect x="663.895" y="430.177" width="53.9418" height="53.9418" transform="rotate(-135 663.895 430.177)" stroke="#F56E0F" stroke-opacity="0.16" stroke-width="2"/>
<rect x="663.895" y="352.135" width="53.9418" height="53.9418" transform="rotate(-135 663.895 352.135)" stroke="#F56E0F" stroke-opacity="0.16" stroke-width="2"/>
<rect x="663.895" y="469.544" width="53.9418" height="53.9418" transform="rotate(-135 663.895 469.544)" stroke="#F56E0F" stroke-opacity="0.16" stroke-width="2"/>
<rect x="585.853" y="547.586" width="53.9418" height="53.9418" transform="rotate(-135 585.853 547.586)" stroke="#F56E0F" stroke-opacity="0.16" stroke-width="2"/>
<rect x="585.853" y="508.219" width="53.9418" height="53.9418" transform="rotate(-135 585.853 508.219)" stroke="#F56E0F" stroke-opacity="0.16" stroke-width="2"/>
<rect x="585.853" y="371.818" width="53.9418" height="53.9418" transform="rotate(-135 585.853 371.818)" stroke="#F56E0F" stroke-opacity="0.16" stroke-width="2"/>
<rect x="585.853" y="469.544" width="53.9418" height="53.9418" transform="rotate(-135 585.853 469.544)" stroke="#F56E0F" stroke-opacity="0.16" stroke-width="2"/>
<rect x="585.853" y="391.501" width="53.9418" height="53.9418" transform="rotate(-135 585.853 391.501)" stroke="#F56E0F" stroke-opacity="0.16" stroke-width="2"/>
<rect x="585.853" y="352.135" width="53.9418" height="53.9418" transform="rotate(-135 585.853 352.135)" stroke="#F56E0F" stroke-opacity="0.16" stroke-width="2"/>
<rect x="741.937" y="275.85" width="53.9418" height="53.9418" transform="rotate(45 741.937 275.85)" stroke="#F56E0F" stroke-opacity="0.16" stroke-width="2"/>
<rect x="741.937" y="315.216" width="53.9418" height="53.9418" transform="rotate(45 741.937 315.216)" stroke="#F56E0F" stroke-opacity="0.16" stroke-width="2"/>
<rect x="741.937" y="451.617" width="53.9418" height="53.9418" transform="rotate(45 741.937 451.617)" stroke="#F56E0F" stroke-opacity="0.16" stroke-width="2"/>
<rect x="741.937" y="353.892" width="53.9418" height="53.9418" transform="rotate(45 741.937 353.892)" stroke="#F56E0F" stroke-opacity="0.16" stroke-width="2"/>
<rect x="741.937" y="431.934" width="53.9418" height="53.9418" transform="rotate(45 741.937 431.934)" stroke="#F56E0F" stroke-opacity="0.16" stroke-width="2"/>
<rect x="741.937" y="471.3" width="53.9418" height="53.9418" transform="rotate(45 741.937 471.3)" stroke="#F56E0F" stroke-opacity="0.16" stroke-width="2"/>
<rect x="819.979" y="547.586" width="53.9418" height="53.9418" transform="rotate(-135 819.979 547.586)" stroke="#F56E0F" stroke-opacity="0.16" stroke-width="2"/>
<rect x="819.979" y="508.219" width="53.9418" height="53.9418" transform="rotate(-135 819.979 508.219)" stroke="#F56E0F" stroke-opacity="0.16" stroke-width="2"/>
<rect x="819.979" y="371.818" width="53.9418" height="53.9418" transform="rotate(-135 819.979 371.818)" stroke="#F56E0F" stroke-opacity="0.16" stroke-width="2"/>
<rect x="819.979" y="469.544" width="53.9418" height="53.9418" transform="rotate(-135 819.979 469.544)" stroke="#F56E0F" stroke-opacity="0.16" stroke-width="2"/>
<rect x="819.979" y="391.501" width="53.9418" height="53.9418" transform="rotate(-135 819.979 391.501)" stroke="#F56E0F" stroke-opacity="0.16" stroke-width="2"/>
<rect x="819.979" y="352.135" width="53.9418" height="53.9418" transform="rotate(-135 819.979 352.135)" stroke="#F56E0F" stroke-opacity="0.16" stroke-width="2"/>
<rect x="898.021" y="508.219" width="53.9418" height="53.9418" transform="rotate(-135 898.021 508.219)" stroke="#F56E0F" stroke-opacity="0.16" stroke-width="2"/>
<rect x="898.021" y="430.177" width="53.9418" height="53.9418" transform="rotate(-135 898.021 430.177)" stroke="#F56E0F" stroke-opacity="0.16" stroke-width="2"/>
<rect x="898.021" y="352.135" width="53.9418" height="53.9418" transform="rotate(-135 898.021 352.135)" stroke="#F56E0F" stroke-opacity="0.16" stroke-width="2"/>
<rect x="898.021" y="469.544" width="53.9418" height="53.9418" transform="rotate(-135 898.021 469.544)" stroke="#F56E0F" stroke-opacity="0.16" stroke-width="2"/>
</svg>
